HIERARCHY
ROOT Hips
{
  OFFSET 0.0 0.0 0.0
  CHANNELS 6 XPOSITION YPOSITION ZPOSITION ZROTATION XROTATION YROTATION 
  JOINT LeftUpLeg
  {
    OFFSET 0.08945800000000001 -0.0866707 0.0010165200000000001
    CHANNELS 3 ZROTATION XROTATION YROTATION 
    JOINT LeftLeg
    {
      OFFSET 0.0 -0.444227 0.013727000000000001
      CHANNELS 3 ZROTATION XROTATION YROTATION 
      JOINT LeftFoot
      {
        OFFSET -0.0025354900000000005 -0.42092399999999996 -0.014605900000000002
        CHANNELS 3 ZROTATION XROTATION YROTATION 
        End Site
        {
          OFFSET -0.0004 -0.0441509 0.08499100000000001
        }
      }
    }
  }
  JOINT Spine
  {
    OFFSET 0.0 0.118905 0.0
    CHANNELS 3 ZROTATION XROTATION YROTATION 
    JOINT Spine1
    {
      OFFSET 0.0 0.25657399999999997 0.00127663
      CHANNELS 3 ZROTATION XROTATION YROTATION 
      End Site
      {
        OFFSET -0.0029 0.21508359999999999 0.02525291
      }
      JOINT RightArm
      {
        OFFSET -0.162727 -0.05365632 0.0010212299999999997
        CHANNELS 3 ZROTATION XROTATION YROTATION 
        JOINT RightForeArm
        {
          OFFSET -0.26364 0.00099144 -0.0142434
          CHANNELS 3 ZROTATION XROTATION YROTATION 
          End Site
          {
            OFFSET -0.220324 0.0008536199999999999 0.010221599999999999
          }
        }
      }
      JOINT LeftArm
      {
        OFFSET 0.162727 -0.053656319900000006 0.0010212299999999997
        CHANNELS 3 ZROTATION XROTATION YROTATION 
        JOINT LeftForeArm
        {
          OFFSET 0.26259699999999997 0.00099144 -0.0142434
          CHANNELS 3 ZROTATION XROTATION YROTATION 
          End Site
          {
            OFFSET 0.220902 0.0008536199999999999 0.010221599999999999
          }
        }
      }
    }
  }
  JOINT RightUpLeg
  {
    OFFSET -0.08945800000000001 -0.0866707 0.0010165200000000001
    CHANNELS 3 ZROTATION XROTATION YROTATION 
    JOINT RightLeg
    {
      OFFSET 0.0 -0.444227 0.013727000000000001
      CHANNELS 3 ZROTATION XROTATION YROTATION 
      JOINT RightFoot
      {
        OFFSET 0.0025354900000000005 -0.42092399999999996 -0.014605900000000002
        CHANNELS 3 ZROTATION XROTATION YROTATION 
        End Site
        {
          OFFSET 0.0004 -0.0441509 0.08499100000000001
        }
      }
    }
  }
}
MOTION
Frames: 14
Frame Time: 0.033333
1.709 1.0352922416125452 0.0970516 -6.603770106574121 -0.07470490056232357 -93.04490083646985 0.6342270337784659 4.669189887380648 6.539089922681392 1.9302900066210587 12.130000178176921 14.790299949515296 -4.857994245286371 -3.9021054289616792 0.013375628153734068 5.37010987642288 -13.488999502239773 2.547169854011573 -6.268819764110811 30.436398696371096 4.358969952354662 82.55581347902712 -22.89999016429383 16.991852626570704 8.977900319614594 34.47770209995716 1.7517799177333078 -91.19582519417483 -24.196935512199822 -23.763440481052037 -18.338299770486366 37.13019923394245 6.085690012744899 -2.5851000289067696 4.254979895354395 -7.535849310338972 -2.259829985488072 12.623100562664114 -6.358049782314681 4.532502861049883 -4.600497821124184 -0.14168329636841565 
1.7089699999999999 1.0352922416125452 0.09704829999999999 -6.432410478695433 -0.10328400620513703 -92.94679882942096 0.6246170109771109 4.449980088610967 6.479560128309677 1.9349499031822999 12.16960076121101 14.746199125591817 -4.847834338895978 -3.9027952780678503 0.013375617314810824 5.156649816273879 -13.350899907411286 2.5120300248357386 -5.964339749308574 30.222999681037802 4.2225100298138 82.13110548624655 -22.93677414806893 15.426409127296925 9.07171979805389 35.11700097608119 1.2277799708843884 -91.1663802486629 -26.227021412783937 -22.738763548935676 -17.810799138244402 36.1151989723327 6.796130004829659 -2.5963201087223964 4.057770135901324 -7.515870153243038 -2.2448298228536663 12.671299500089601 -6.488190072325988 4.533833040390744 -4.609447930257839 -0.14168471043101727 
1.70863 1.0352922416125452 0.0970032 -6.164970152875353 -0.12381300019936321 -92.72470156817965 0.6405950112407391 4.102820356119436 6.402759773734761 1.9600698448457257 12.268200518295666 14.600400200021431 -4.84293453194014 -3.9238655578836936 0.013375963326591286 4.895760068754664 -13.157398940677531 2.346780001169627 -5.639259883969579 29.933901679133257 3.9487201893865467 81.37402682807483 -22.883322795171704 12.541596769072 9.287969563592016 35.51689830670168 0.40695000786663216 -90.27244509009164 -28.816465655446247 -20.594160989179837 -16.776800705458268 34.63350213001974 7.7609595387778985 -2.5787699376500486 3.806769648526641 -7.483309787695942 -2.2117501494862366 12.69939975210868 -6.762359842025823 4.566513788021962 -4.625637613024884 -0.14168880587647661 
1.70765 1.0352922416125452 0.09683160000000002 -6.086539944409742 -0.050161399517409576 -92.42349705597127 0.7703939518761045 3.987399977543152 6.429249808657009 2.010759880327564 12.391100380899937 14.221000267100148 -4.888234907836603 -4.013255658646235 0.013377464100578839 4.844270260809701 -13.072399797777662 2.144150059723328 -5.6178105286548 30.13350029724854 3.7470797715962534 80.82716090198859 -23.115957330755048 9.690748380268607 9.2716308973237 33.887601076424744 0.03744150287452979 -88.85364404475074 -30.78584824978187 -18.59693342114536 -16.47300072136527 35.21950162495557 9.140129265233444 -2.441450051604 3.926090065119002 -7.472740069955346 -2.1782198970769975 12.517399970163583 -7.086789985620022 4.600862809357956 -4.608597571706173 -0.1416848571733627 
1.70647 1.0352922416125452 0.0965794 -6.198990044470716 0.0915731999760072 -92.23960104275784 0.9798549896269153 4.123659690163968 6.5712596867853295 2.0397198824084177 12.49099958147419 13.81599993139601 -4.9546721578933175 -4.132915450262981 0.013335885157253721 4.8488998484065 -12.921499574670923 1.9879500367074832 -5.539460148025115 30.432102507383156 3.5598800812586595 80.34311905588812 -23.66710407790359 7.306956864647151 8.987960334488376 30.993701151509114 0.16799900138426985 -87.02409591329278 -31.69793463607245 -16.555014217824198 -17.1133002202027 37.09079928771523 10.210799837447025 -2.2244600643145724 4.307149734008599 -7.443179865001178 -2.1756997707166743 12.21839990150981 -7.302779350196042 4.599801141828842 -4.555208117398299 -0.1416743851059829 
1.70582 1.0352922416125452 0.0964189 -6.219829805402071 0.18803500112874524 -92.36720263683202 1.106989996403417 4.1967098439977235 6.704949967617751 1.9963799842471597 12.52629970665211 13.801799968111554 -4.971675060058418 -4.202175702881026 0.013233517363562824 4.87291009777321 -12.752799878587133 1.9876699989515125 -5.498959687567878 30.558099007002383 3.539859943027706 79.8316471700809 -24.17091078391478 5.346172624702924 8.67998966613344 29.762300006425857 0.42462397611768643 -84.97127572805628 -32.02345803682067 -14.164173093205642 -17.68310021397455 38.30559965802077 10.173699957422809 -2.0995000459018964 4.404259656080547 -7.348709811043439 -2.214800042394059 12.116899875348837 -7.269870645001275 4.57971014038525 -4.527617995132855 -0.14166930248474507 
1.7056 1.0352922416125452 0.0964665 -6.024159826720016 0.17068499995580383 -92.69229915075711 1.0703799690087372 4.064949945379476 6.721539643338065 1.9165201318109013 12.479799778782661 14.18030002360969 -4.943855272682133 -4.200655558903875 0.013228579817143779 4.913030202071042 -12.657200282095403 2.093099945206183 -5.627240031690826 30.440401187224722 3.6956599730902817 79.30069558476079 -24.300701453617947 3.7045648322206857 8.539609641895815 31.355998290748687 0.4995089695585162 -83.06613106286463 -32.4135301403201 -11.714182530374776 -17.637599201271218 38.3616003790257 9.405419789012264 -2.1447301989159557 4.085329949202325 -7.254710186364785 -2.2549899426874718 12.254800540917747 -7.044699798633464 4.569061448582377 -4.560817837140994 -0.14167537228176139 
1.70514 1.0352922416125452 0.09668290000000002 -5.806399735601669 0.10714199586913642 -92.91529799696886 0.9560039690452308 3.9344502166630977 6.638370137362113 1.8898998964075997 12.370600421879791 14.53139992147867 -4.941899704145393 -4.17619537082559 0.013302421232384625 4.902250029126646 -12.664699829804077 2.1575299734205595 -5.721819795562109 30.3060001398318 3.8081198915481878 78.84760132578965 -24.244763911862837 2.555571413577512 8.556820011056955 33.63740100184342 0.3106409788357203 -81.783974782059 -32.959122236126134 -9.99028803386681 -17.4298999788003 38.15040068460516 9.023269851176403 -2.2608698817892066 3.7978097209960535 -7.273919239631799 -2.2484899504751468 12.343799613350306 -6.812880189995469 4.557642652950585 -4.6048076704904615 -0.14168453700824538 
1.70451 1.0352922416125452 0.0969603 -5.7435897428810545 0.08953210066219071 -92.98090196394683 0.8749540095069506 3.960550077029009 6.547820185101139 1.9340698759964259 12.266599692708946 14.673500299613494 -4.983479334491492 -4.163815652954942 0.013436307781104086 4.7996298519417895 -12.666399693133764 2.126850044329332 -5.551490245587623 30.329000801861813 3.7305101595566255 78.54991436100381 -24.343490881220784 2.136649444797596 8.636190224307088 34.334001750009264 -0.13920400440076713 -81.30603912507652 -33.45269219611877 -9.294632413127363 -17.367900644156805 38.19730017854105 9.286509610656926 -2.32761982644386 3.8048098111216704 -7.375649784677262 -2.2151902169503956 12.25610083818099 -6.649070055583761 4.535353184367894 -4.602408139657672 -0.14168395003886355 
1.70446 1.035291241612545 0.0971902 -5.775939653224351 0.13030099956000096 -93.08610053754337 0.8638249633063552 4.01367016575149 6.528739624767884 1.9746301006089004 12.266000343609276 14.813399649288279 -5.012541789409896 -4.169265717025789 0.013610988701858505 4.708580015210934 -12.504900723982459 2.0846401155888876 -5.286530132209903 30.38530205119023 3.5947601498026223 78.45756337323607 -24.563597142319033 2.4369694475084716 8.708009663429772 33.74140087724062 -0.690999993046435 -81.34322950510725 -33.74268153771 -9.229964182065684 -17.332800302012107 38.294299110038985 9.609490473486613 -2.3132800577248296 3.873240195755559 -7.38907025262269 -2.216889866836671 12.168099827140898 -6.520420027471986 4.527231235671103 -4.55909791013062 -0.14167469193088703 
1.7050200000000002 1.035288241612545 0.0972939 -5.820939927684157 0.2188330044472071 -93.26520175795945 0.9395229360214016 3.9930797067248407 6.613769930405843 1.9620399275344513 12.398599928608611 14.976799972349786 -5.001085427737669 -4.207505384867751 0.013807139028268176 4.745730267880281 -12.149999825840364 2.0863698609961934 -5.215479943142492 30.295498723982902 3.555340139894717 78.57741953279145 -24.662008215427868 3.201733776043752 8.771469804782006 33.41759868416324 -1.0268099788498142 -81.57723861626106 -33.750215236364525 -9.486083469336467 -17.292298987781226 38.3477999818077 9.692789753056795 -2.2233700088117208 3.8674699665673673 -7.271929947036033 -2.255379903800397 12.154499212956111 -6.449209755845902 4.541198545636956 -4.501607354112977 -0.14166393971902955 
1.7054 1.035285241612545 0.097313 -5.892269727620715 0.33622198494854855 -93.32110002612683 1.089649960369753 3.987969871452025 6.752380081874789 1.9317999053144546 12.558799454270321 14.901801080168463 -4.988389813617908 -4.280935467974089 0.014005638065968365 4.849570060718807 -11.800499899784459 2.067719816024062 -5.281999582356069 30.144500316906846 3.5391000844825418 78.8440359670429 -24.58485098346882 4.2294460869159485 8.816800062756089 33.72279885703609 -0.9364010059621769 -82.04868559353201 -33.466253536715826 -10.210656403474454 -17.382798994283895 38.44220002632644 9.775389792010698 -2.0896400275047484 3.954450291213364 -7.171900119093904 -2.264750069568008 12.077800457445099 -6.500030205252205 4.541606222553041 -4.436057601761542 -0.14165164004243824 
1.70536 1.0352822416125451 0.0974417 -5.9243797275694146 0.3965450150789111 -93.22180273597318 1.1834999612169017 3.9964200961158003 6.804829958284963 1.9253897727783975 12.600999778057245 14.640599278381542 -5.00272296559118 -4.326845438253977 0.014185830996073732 4.8711897438760134 -11.688600056838494 1.986239928094041 -5.2798698439954945 30.102399030862887 3.4496700698020377 79.17732187778284 -24.40161237596301 5.534948381191499 8.822590355624966 33.956698685163175 -0.4690540098230756 -82.89943346598129 -32.960730745675676 -11.525031540368674 -17.542300986876615 38.333999584589684 9.877259502160499 -2.0306299678401887 4.061970275354058 -7.192909780980863 -2.2249198214230788 11.970300110098268 -6.588590011143768 4.522024497089437 -4.38788811952685 -0.14164222185190303 
1.70565 1.035278241612545 0.09782310000000001 -5.777470042485257 0.31032401536954934 -93.20610013107132 1.0667400117896493 3.84823999584602 6.672250436966315 1.9262000039686904 12.510100205488131 14.66390046873504 -5.011132209119935 -4.2706154790250235 0.014327032150455853 4.7862900656059315 -11.76020007613409 1.9321499525094177 -5.24190978702268 30.06619902826182 3.4004299554149466 79.53348892224233 -24.111587175878636 7.14557870446679 8.825799690761226 33.77379987956858 0.2821879848986074 -83.99435377106936 -32.246002675452615 -13.177164654361903 -17.555800855771146 37.67930204698187 9.527720302516865 -2.168229891642208 3.8200799796717035 -7.259049064035035 -2.1921799499668575 12.090800014982925 -6.530470223948837 4.528864931543206 -4.4077076209509345 -0.14164567696712768 
